<?xml version="1.0" encoding="UTF-8" standalone="no"?>
<svg
   xmlns:dc="http://purl.org/dc/elements/1.1/"
   xmlns:cc="http://creativecommons.org/ns#"
   xmlns:rdf="http://www.w3.org/1999/02/22-rdf-syntax-ns#"
   xmlns:svg="http://www.w3.org/2000/svg"
   xmlns="http://www.w3.org/2000/svg"
   xmlns:sodipodi="http://sodipodi.sourceforge.net/DTD/sodipodi-0.dtd"
   xmlns:inkscape="http://www.inkscape.org/namespaces/inkscape"
   version="1.0"
   width="210mm"
   height="297mm"
   viewBox="0 0 7937.008 11225.197"
   preserveAspectRatio="xMidYMid meet"
   id="svg62"
   sodipodi:docname="ruby.svg"
   inkscape:version="0.92.2 5c3e80d, 2017-08-06">
  <metadata
     id="metadata68">
    <rdf:RDF>
      <cc:Work
         rdf:about="">
        <dc:format>image/svg+xml</dc:format>
        <dc:type
           rdf:resource="http://purl.org/dc/dcmitype/StillImage" />
        <dc:title></dc:title>
      </cc:Work>
    </rdf:RDF>
  </metadata>
  <defs
     id="defs66" />
  <sodipodi:namedview
     pagecolor="#ffffff"
     bordercolor="#666666"
     borderopacity="1"
     objecttolerance="10"
     gridtolerance="10"
     guidetolerance="10"
     inkscape:pageopacity="0"
     inkscape:pageshadow="2"
     inkscape:window-width="1280"
     inkscape:window-height="778"
     id="namedview64"
     showgrid="false"
     units="mm"
     inkscape:zoom="0.84077381"
     inkscape:cx="583.78761"
     inkscape:cy="289.11974"
     inkscape:window-x="0"
     inkscape:window-y="403"
     inkscape:window-maximized="1"
     inkscape:current-layer="layer101" />
  <g
     id="layer101"
     style="fill:#dbdbd3;stroke:none"
     transform="matrix(4.8882082,0,0,4.8882082,6488.043,7121.7277)">
    <path
       d="m -308.74575,703.28295 c -23.97957,-9.59182 -59.94893,-48.75846 -64.74485,-70.34008 -3.19727,-10.39115 -3.99659,-57.55097 -2.39796,-104.7108 3.19728,-78.33327 5.59524,-91.12238 29.57481,-139.88084 35.17004,-70.34009 116.70059,-154.26859 181.44544,-185.44204 43.16323,-20.7823 57.55098,-23.97957 143.877443,-26.37753 107.90808,-2.39796 132.686967,5.59523 164.659737,55.95234 14.38774,23.97957 15.98638,34.37072 11.19046,114.30263 -9.59183,174.25157 -27.97616,318.92833 -40.76527,328.52016 -13.58842,11.19046 -63.945526,16.7857 -231.00322,27.17685 -142.27881,8.79251 -170.25497,8.79251 -191.83659,0.79931 z m 9.59183,-65.54416 c -6.39455,-16.7857 -10.39115,-20.7823 -11.98979,-11.19047 -3.99659,16.7857 3.9966,35.96936 13.58843,35.96936 3.99659,0 3.19727,-10.39115 -1.59864,-24.77889 z m 121.4965,15.98638 c 30.37413,-10.39115 31.17345,-23.18025 3.19728,-70.34008 l -21.58162,-36.76868 -14.38774,47.95915 c -21.58162,73.53735 -19.98298,77.53395 32.77208,59.14961 z M 42.954662,632.14355 C 38.158747,628.94628 25.369641,617.75581 13.379855,607.36466 L -9.0010805,588.181 -28.984058,606.56534 c -19.183659,17.58502 -19.183659,19.98298 -6.394553,24.77889 19.982978,7.9932 87.125783,8.79252 78.333273,0.79932 z M -240.80363,573.79326 c 5.59524,-21.58162 7.9932,-41.56459 5.59524,-43.96255 -7.19387,-7.19387 -47.15983,6.39455 -51.15643,18.38434 -5.59523,13.58842 20.7823,75.13599 29.57481,70.34008 3.9966,-2.39796 10.39115,-22.38094 15.98638,-44.76187 z m 162.261784,23.97957 c 16.785701,-14.38774 27.976169,-27.97617 23.979573,-31.17344 -7.993191,-7.19388 -81.530547,-31.97277 -95.918297,-31.97277 -7.19387,0 -3.99659,13.58843 11.19047,43.96255 11.98979,23.97958 23.97957,43.96255 26.37753,43.96255 2.39796,0 18.384341,-11.19046 34.370724,-24.77889 z M 74.927426,554.6096 c -2.397957,-23.97957 -7.993191,-43.96255 -11.190467,-43.96255 -3.197277,0 -14.387744,11.19047 -24.778893,25.57821 l -18.384339,25.57821 26.37753,22.38094 c 15.187063,11.98978 28.775488,20.78229 30.374126,18.38434 1.598639,-1.59864 0.79932,-23.18026 -2.397957,-47.95915 z M -36.17793,513.04501 c -14.387747,-58.3503 -29.574811,-106.30945 -35.170044,-106.30945 -3.197277,0 -25.578212,19.98298 -49.557786,43.96256 -23.97957,23.97957 -41.56459,43.96255 -39.16664,43.96255 2.39796,0 29.57481,8.79251 59.94894,19.98297 69.540763,24.7789 69.540763,24.7789 63.94553,-1.59863 z m 83.129187,-51.95575 c 0,-7.19387 -63.945529,-48.75846 -67.942124,-44.76187 -1.598638,1.59864 2.397957,25.57822 9.591829,53.55438 L 1.3900679,521.0382 23.771003,493.86135 c 12.789106,-15.18707 23.180254,-29.57481 23.180254,-32.77209 z m -262.975987,3.19728 c 114.30263,-73.53736 204.625692,-233.40118 131.088331,-233.40118 -35.969361,0 -95.118971,34.37072 -144.676761,83.92851 -55.95234,55.15302 -83.12919,102.31284 -83.12919,143.87744 0,27.17685 0.79932,27.97617 30.37413,27.97617 19.98298,0 43.16323,-7.9932 66.34349,-22.38094 z M 86.917213,397.94305 c 12.789105,-22.38093 7.993191,-24.77889 -36.768679,-16.7857 l -39.166637,6.39456 23.979574,13.58842 c 31.972764,17.58502 41.564593,16.7857 51.955742,-3.19728 z m -48.758466,-59.94893 24.778892,-4.79591 -34.370721,-27.17685 -33.571403,-27.17685 -9.591829,26.37753 c -4.795915,13.58842 -9.59183,27.97617 -9.59183,31.97276 -0.799319,7.19387 27.9761692,7.19387 62.346891,0.79932 z m 72.738043,-50.3571 c -5.59524,-11.19047 -16.785705,-16.7857 -33.571407,-16.7857 H 52.546491 l 31.173445,24.77889 c 31.173444,24.77889 43.163234,21.58161 27.176854,-7.99319 z"
       id="path59"
       inkscape:connector-curvature="0"
       style="opacity:0.7;fill:#ffffff;stroke-width:0.79931909" />
  </g>
</svg>
